<svg width="20" height="24" viewBox="0 0 20 24" fill="none" xmlns="http://www.w3.org/2000/svg">
<path opacity="0.5" fill-rule="evenodd" clip-rule="evenodd" d="M14.644 6.14849C14.644 8.99192 12.3389 11.297 9.49549 11.297C6.65206 11.297 4.347 8.99192 4.347 6.14849C4.347 3.30506 6.65206 1 9.49549 1C12.3389 1 14.644 3.30506 14.644 6.14849ZM15.644 6.14849C15.644 9.54421 12.8912 12.297 9.49549 12.297C6.09978 12.297 3.34701 9.54421 3.34701 6.14849C3.34701 2.75277 6.09978 0 9.49549 0C12.8912 0 15.644 2.75277 15.644 6.14849ZM10 14.5267C14.6326 14.5267 18.4476 18.0267 18.9451 22.5267H1.05493C1.55237 18.0267 5.36745 14.5267 10 14.5267ZM10 13.5267C15.1853 13.5267 19.4489 17.4734 19.9506 22.5267C19.9833 22.8556 20 23.1892 20 23.5267H19H1H0C0 23.1892 0.0167194 22.8556 0.0493752 22.5267C0.5511 17.4734 4.81465 13.5267 10 13.5267Z" fill="url(#paint0_linear_135_1367)"/>
<defs>
<linearGradient id="paint0_linear_135_1367" x1="13.3643" y1="0" x2="13.3643" y2="38.1206" gradientUnits="userSpaceOnUse">
<stop stop-color="#DCAAFF"/>
<stop offset="1" stop-color="#BF69FE"/>
</linearGradient>
</defs>
</svg>
