<svg width="99" height="27" viewBox="0 0 99 27" fill="none" xmlns="http://www.w3.org/2000/svg">
<g opacity="0.5" filter="url(#filter0_f_135_1373)">
<path fill-rule="evenodd" clip-rule="evenodd" d="M49.3556 14.3884C48.8067 16.9088 46.5625 18.7963 43.8776 18.7963C40.7812 18.7963 38.2711 16.2862 38.2711 13.1898C38.2711 10.0935 40.7812 7.58341 43.8776 7.58341C46.496 7.58341 48.6951 9.3784 49.3117 11.805H47.4868C46.9299 10.3545 45.5239 9.32496 43.8774 9.32496C41.7429 9.32496 40.0125 11.0553 40.0125 13.1898C40.0125 15.3244 41.7429 17.0547 43.8774 17.0547C45.5935 17.0547 47.0484 15.9362 47.5528 14.3884H49.3556ZM52.0674 13.1898C52.0674 17.713 48.4007 21.3797 43.8776 21.3797C39.3545 21.3797 35.6877 17.713 35.6877 13.1898C35.6877 8.66672 39.3545 5.00001 43.8776 5.00001C48.4007 5.00001 52.0674 8.66672 52.0674 13.1898ZM43.8774 14.4713C44.5851 14.4713 45.1589 13.8976 45.1589 13.1898C45.1589 12.4821 44.5851 11.9084 43.8774 11.9084C43.1696 11.9084 42.5959 12.4821 42.5959 13.1898C42.5959 13.8976 43.1696 14.4713 43.8774 14.4713Z" fill="url(#paint0_linear_135_1373)"/>
<path d="M11.2453 21.3797C10.01 21.3797 8.92715 21.1509 7.99684 20.6934C7.08177 20.2358 6.36497 19.5877 5.84643 18.7488C5.3279 17.8948 5.04575 16.8958 5 15.752H8.31711C8.37811 16.5756 8.66026 17.2237 9.16354 17.6965C9.66683 18.1693 10.3608 18.4057 11.2453 18.4057C12.0231 18.4057 12.6332 18.2456 13.0754 17.9253C13.533 17.605 13.7617 17.1475 13.7617 16.5527C13.7617 16.1257 13.6245 15.7901 13.35 15.5461C13.0907 15.2868 12.7475 15.0886 12.3205 14.9513C11.9087 14.8141 11.3444 14.6616 10.6276 14.4938C9.52957 14.2498 8.63738 13.9905 7.95108 13.716C7.26478 13.4262 6.66999 12.9534 6.16671 12.2976C5.66342 11.6418 5.41178 10.742 5.41178 9.5982C5.41178 8.69838 5.64817 7.90533 6.12095 7.21903C6.60899 6.51748 7.27241 5.97607 8.11122 5.59479C8.96528 5.19826 9.93372 5 11.0165 5C12.1451 5 13.1517 5.20589 14.0363 5.61767C14.9208 6.02945 15.6071 6.61661 16.0952 7.37917C16.5832 8.14172 16.8501 9.02628 16.8958 10.0329H13.6245C13.5635 9.40756 13.2966 8.90427 12.8238 8.523C12.3663 8.14172 11.7639 7.95108 11.0165 7.95108C10.3455 7.95108 9.80409 8.10359 9.39231 8.40861C8.99578 8.69838 8.79752 9.09491 8.79752 9.5982C8.79752 10.0252 8.93478 10.376 9.2093 10.6505C9.49907 10.9098 9.84984 11.1081 10.2616 11.2453C10.6887 11.3826 11.2758 11.5275 12.0231 11.68C13.1059 11.9087 13.9905 12.1604 14.6768 12.4349C15.3631 12.7094 15.9579 13.1746 16.4612 13.8304C16.9645 14.4709 17.2161 15.3631 17.2161 16.5069C17.2161 17.4983 16.9645 18.3599 16.4612 19.092C15.9731 19.824 15.2792 20.3883 14.3794 20.7849C13.4796 21.1814 12.4349 21.3797 11.2453 21.3797Z" fill="url(#paint1_linear_135_1373)"/>
<path d="M26.6776 21.3797C25.1677 21.3797 23.7951 21.067 22.5598 20.4417C21.3397 19.8164 20.3712 18.8861 19.6544 17.6508C18.9376 16.4154 18.5792 14.9361 18.5792 13.2127C18.5792 11.4588 18.9376 9.96422 19.6544 8.72889C20.3865 7.49355 21.3626 6.56323 22.5826 5.93794C23.818 5.31265 25.1829 5 26.6776 5C27.9739 5 29.1559 5.24402 30.2234 5.73205C31.291 6.20483 32.1527 6.87588 32.8085 7.74519C33.4795 8.6145 33.8837 9.61345 34.0209 10.742H30.4293C30.3531 10.193 30.1395 9.71258 29.7888 9.3008C29.438 8.87377 28.9805 8.54587 28.4162 8.31711C27.8671 8.07309 27.2647 7.95108 26.6089 7.95108C25.7396 7.95108 24.9542 8.15697 24.2526 8.56875C23.5663 8.96528 23.0249 9.56007 22.6284 10.3531C22.2319 11.1309 22.0336 12.0765 22.0336 13.1898C22.0336 14.3032 22.2319 15.2563 22.6284 16.0494C23.0249 16.8272 23.5663 17.4144 24.2526 17.8109C24.9542 18.2074 25.7472 18.4057 26.6318 18.4057C27.3028 18.4057 27.9129 18.2913 28.4619 18.0625C29.0262 17.8338 29.4837 17.5059 29.8345 17.0788C30.2005 16.6518 30.4293 16.1714 30.5208 15.6376H33.9523C33.8608 16.7662 33.4872 17.7651 32.8314 18.6345C32.1908 19.5038 31.3368 20.1824 30.2692 20.6705C29.2016 21.1433 28.0044 21.3797 26.6776 21.3797Z" fill="url(#paint2_linear_135_1373)"/>
<path d="M54.075 5.18301H60.8236C61.9521 5.18301 62.9206 5.37365 63.7289 5.75493C64.5372 6.12095 65.1549 6.65474 65.5819 7.35629C66.0089 8.04259 66.2224 8.86615 66.2224 9.82696C66.2224 10.8335 65.9555 11.68 65.4218 12.3663C64.9032 13.0373 64.1864 13.5406 63.2714 13.8761C62.3563 14.2116 61.3116 14.3794 60.1373 14.3794H57.5293V21.1966H54.075V5.18301ZM62.5851 17.239C62.5241 16.6899 62.3105 16.2477 61.9445 15.9121C61.5937 15.5614 61.1591 15.386 60.6405 15.386H56.9574V12.8009H61.4412C62.7376 12.8009 63.7975 13.1669 64.6211 13.899C65.4446 14.6158 65.9174 15.5766 66.0394 16.7815L66.4741 21.1966H63.0197L62.5851 17.239ZM60.6177 12.4349C61.121 12.4349 61.5404 12.3358 61.8759 12.1375C62.2267 11.9392 62.4859 11.6723 62.6537 11.3368C62.8214 11.0013 62.9053 10.6276 62.9053 10.2159C62.9053 9.59057 62.7147 9.07204 62.3334 8.66026C61.9521 8.24848 61.3802 8.04259 60.6177 8.04259H57.5293V12.4349H60.6177Z" fill="url(#paint3_linear_135_1373)"/>
<path d="M68.7696 5.18301H79.6589V8.13409H72.2011V11.5198H78.149V14.4938H72.2011V18.2227H79.9105V21.1966H68.7696V5.18301Z" fill="url(#paint4_linear_135_1373)"/>
<path d="M90.3397 5.18301H93.9314L84.2546 21.1966H80.5714L90.3397 5.18301ZM80.6401 5.18301H84.2546L94 21.1966H90.3169L80.6401 5.18301Z" fill="url(#paint5_linear_135_1373)"/>
</g>
<defs>
<filter id="filter0_f_135_1373" x="0" y="0" width="99" height="26.3797" filterUnits="userSpaceOnUse" color-interpolation-filters="sRGB">
<feFlood flood-opacity="0" result="BackgroundImageFix"/>
<feBlend mode="normal" in="SourceGraphic" in2="BackgroundImageFix" result="shape"/>
<feGaussianBlur stdDeviation="2.5" result="effect1_foregroundBlur_135_1373"/>
</filter>
<linearGradient id="paint0_linear_135_1373" x1="43.8776" y1="5.00001" x2="43.8776" y2="21.3797" gradientUnits="userSpaceOnUse">
<stop stop-color="#9D51D3"/>
<stop offset="1" stop-color="#8B4EB7"/>
</linearGradient>
<linearGradient id="paint1_linear_135_1373" x1="49.5" y1="5" x2="49.5" y2="21.3797" gradientUnits="userSpaceOnUse">
<stop stop-color="#9D51D3"/>
<stop offset="1" stop-color="#8B4EB7"/>
</linearGradient>
<linearGradient id="paint2_linear_135_1373" x1="49.5" y1="5" x2="49.5" y2="21.3797" gradientUnits="userSpaceOnUse">
<stop stop-color="#9D51D3"/>
<stop offset="1" stop-color="#8B4EB7"/>
</linearGradient>
<linearGradient id="paint3_linear_135_1373" x1="49.5" y1="5" x2="49.5" y2="21.3797" gradientUnits="userSpaceOnUse">
<stop stop-color="#9D51D3"/>
<stop offset="1" stop-color="#8B4EB7"/>
</linearGradient>
<linearGradient id="paint4_linear_135_1373" x1="49.5" y1="5" x2="49.5" y2="21.3797" gradientUnits="userSpaceOnUse">
<stop stop-color="#9D51D3"/>
<stop offset="1" stop-color="#8B4EB7"/>
</linearGradient>
<linearGradient id="paint5_linear_135_1373" x1="49.5" y1="5" x2="49.5" y2="21.3797" gradientUnits="userSpaceOnUse">
<stop stop-color="#9D51D3"/>
<stop offset="1" stop-color="#8B4EB7"/>
</linearGradient>
</defs>
</svg>
