<svg width="89" height="17" viewBox="0 0 89 17" fill="none" xmlns="http://www.w3.org/2000/svg">
<path fill-rule="evenodd" clip-rule="evenodd" d="M44.3556 9.38839C43.8067 11.9088 41.5625 13.7963 38.8776 13.7963C35.7812 13.7963 33.2711 11.2862 33.2711 8.18984C33.2711 5.09349 35.7812 2.58341 38.8776 2.58341C41.496 2.58341 43.6951 4.3784 44.3117 6.80499H42.4868C41.9299 5.35453 40.5239 4.32496 38.8774 4.32496C36.7429 4.32496 35.0125 6.05533 35.0125 8.18984C35.0125 10.3244 36.7429 12.0547 38.8774 12.0547C40.5935 12.0547 42.0484 10.9362 42.5528 9.38839H44.3556ZM47.0674 8.18984C47.0674 12.713 43.4007 16.3797 38.8776 16.3797C34.3545 16.3797 30.6877 12.713 30.6877 8.18984C30.6877 3.66672 34.3545 9.53674e-06 38.8776 9.53674e-06C43.4007 9.53674e-06 47.0674 3.66672 47.0674 8.18984ZM38.8774 9.47133C39.5851 9.47133 40.1589 8.89759 40.1589 8.18984C40.1589 7.4821 39.5851 6.90836 38.8774 6.90836C38.1696 6.90836 37.5959 7.4821 37.5959 8.18984C37.5959 8.89759 38.1696 9.47133 38.8774 9.47133Z" fill="url(#paint0_linear_135_1379)"/>
<path d="M6.24531 16.3797C5.00998 16.3797 3.92715 16.1509 2.99684 15.6934C2.08177 15.2358 1.36497 14.5877 0.846435 13.7488C0.327898 12.8948 0.0457533 11.8958 0 10.752H3.31711C3.37811 11.5756 3.66026 12.2237 4.16354 12.6965C4.66683 13.1693 5.36075 13.4057 6.24531 13.4057C7.02312 13.4057 7.63316 13.2456 8.07544 12.9253C8.53298 12.605 8.76174 12.1475 8.76174 11.5527C8.76174 11.1257 8.62448 10.7901 8.34996 10.5461C8.09069 10.2868 7.74754 10.0886 7.32051 9.95132C6.90874 9.81406 6.34445 9.66155 5.62765 9.49379C4.52957 9.24977 3.63738 8.99051 2.95108 8.71599C2.26478 8.42622 1.66999 7.95343 1.16671 7.29764C0.663422 6.64184 0.411779 5.74203 0.411779 4.5982C0.411779 3.69838 0.648171 2.90533 1.12095 2.21903C1.60899 1.51748 2.27241 0.976068 3.11122 0.594791C3.96528 0.198264 4.93372 0 6.01655 0C7.14513 0 8.1517 0.205889 9.03626 0.617667C9.92082 1.02945 10.6071 1.61661 11.0952 2.37917C11.5832 3.14172 11.8501 4.02628 11.8958 5.03285H8.62448C8.56348 4.40756 8.29658 3.90427 7.8238 3.523C7.36627 3.14172 6.76385 2.95108 6.01655 2.95108C5.3455 2.95108 4.80409 3.10359 4.39231 3.40861C3.99578 3.69838 3.79752 4.09491 3.79752 4.5982C3.79752 5.02523 3.93478 5.376 4.2093 5.65052C4.49907 5.90979 4.84984 6.10805 5.26162 6.24531C5.68865 6.38257 6.27582 6.52746 7.02312 6.67997C8.10595 6.90874 8.99051 7.16038 9.67681 7.4349C10.3631 7.70942 10.9579 8.17457 11.4612 8.83037C11.9645 9.47092 12.2161 10.3631 12.2161 11.5069C12.2161 12.4983 11.9645 13.3599 11.4612 14.092C10.9731 14.824 10.2792 15.3883 9.37941 15.7849C8.4796 16.1814 7.4349 16.3797 6.24531 16.3797Z" fill="url(#paint1_linear_135_1379)"/>
<path d="M21.6776 16.3797C20.1677 16.3797 18.7951 16.067 17.5598 15.4417C16.3397 14.8164 15.3712 13.8861 14.6544 12.6508C13.9376 11.4154 13.5792 9.93607 13.5792 8.2127C13.5792 6.45883 13.9376 4.96422 14.6544 3.72889C15.3865 2.49355 16.3626 1.56323 17.5826 0.93794C18.818 0.312647 20.1829 0 21.6776 0C22.9739 0 24.1559 0.244017 25.2234 0.73205C26.291 1.20483 27.1527 1.87588 27.8085 2.74519C28.4795 3.6145 28.8837 4.61345 29.0209 5.74203H25.4293C25.3531 5.19299 25.1395 4.71258 24.7888 4.3008C24.438 3.87377 23.9805 3.54587 23.4162 3.31711C22.8671 3.07309 22.2647 2.95108 21.6089 2.95108C20.7396 2.95108 19.9542 3.15697 19.2526 3.56875C18.5663 3.96528 18.0249 4.56007 17.6284 5.35313C17.2319 6.13093 17.0336 7.0765 17.0336 8.18983C17.0336 9.30315 17.2319 10.2563 17.6284 11.0494C18.0249 11.8272 18.5663 12.4144 19.2526 12.8109C19.9542 13.2074 20.7472 13.4057 21.6318 13.4057C22.3028 13.4057 22.9129 13.2913 23.4619 13.0625C24.0262 12.8338 24.4837 12.5059 24.8345 12.0788C25.2005 11.6518 25.4293 11.1714 25.5208 10.6376H28.9523C28.8608 11.7662 28.4872 12.7651 27.8314 13.6345C27.1908 14.5038 26.3368 15.1824 25.2692 15.6705C24.2016 16.1433 23.0044 16.3797 21.6776 16.3797Z" fill="url(#paint2_linear_135_1379)"/>
<path d="M49.075 0.183012H55.8236C56.9521 0.183012 57.9206 0.373651 58.7289 0.754928C59.5372 1.12095 60.1549 1.65474 60.5819 2.35629C61.0089 3.04259 61.2224 3.86615 61.2224 4.82696C61.2224 5.83353 60.9555 6.67997 60.4218 7.36627C59.9032 8.03732 59.1864 8.5406 58.2714 8.87612C57.3563 9.21165 56.3116 9.37941 55.1373 9.37941H52.5293V16.1966H49.075V0.183012ZM57.5851 12.239C57.5241 11.6899 57.3105 11.2477 56.9445 10.9121C56.5937 10.5614 56.1591 10.386 55.6405 10.386H51.9574V7.80092H56.4412C57.7376 7.80092 58.7975 8.16695 59.6211 8.899C60.4446 9.6158 60.9174 10.5766 61.0394 11.7815L61.4741 16.1966H58.0197L57.5851 12.239ZM55.6177 7.4349C56.121 7.4349 56.5404 7.33577 56.8759 7.1375C57.2267 6.93924 57.4859 6.67234 57.6537 6.33682C57.8214 6.0013 57.9053 5.62765 57.9053 5.21587C57.9053 4.59057 57.7147 4.07204 57.3334 3.66026C56.9521 3.24848 56.3802 3.04259 55.6177 3.04259H52.5293V7.4349H55.6177Z" fill="url(#paint3_linear_135_1379)"/>
<path d="M63.7696 0.183012H74.6589V3.13409H67.2011V6.51983H73.149V9.49379H67.2011V13.2227H74.9105V16.1966H63.7696V0.183012Z" fill="url(#paint4_linear_135_1379)"/>
<path d="M85.3397 0.183012H88.9314L79.2546 16.1966H75.5714L85.3397 0.183012ZM75.6401 0.183012H79.2546L89 16.1966H85.3169L75.6401 0.183012Z" fill="url(#paint5_linear_135_1379)"/>
<defs>
<linearGradient id="paint0_linear_135_1379" x1="38.8776" y1="9.53674e-06" x2="38.8776" y2="16.3797" gradientUnits="userSpaceOnUse">
<stop stop-color="#9D51D3"/>
<stop offset="1" stop-color="#8B4EB7"/>
</linearGradient>
<linearGradient id="paint1_linear_135_1379" x1="44.5" y1="0" x2="44.5" y2="16.3797" gradientUnits="userSpaceOnUse">
<stop stop-color="#9D51D3"/>
<stop offset="1" stop-color="#8B4EB7"/>
</linearGradient>
<linearGradient id="paint2_linear_135_1379" x1="44.5" y1="0" x2="44.5" y2="16.3797" gradientUnits="userSpaceOnUse">
<stop stop-color="#9D51D3"/>
<stop offset="1" stop-color="#8B4EB7"/>
</linearGradient>
<linearGradient id="paint3_linear_135_1379" x1="44.5" y1="0" x2="44.5" y2="16.3797" gradientUnits="userSpaceOnUse">
<stop stop-color="#9D51D3"/>
<stop offset="1" stop-color="#8B4EB7"/>
</linearGradient>
<linearGradient id="paint4_linear_135_1379" x1="44.5" y1="0" x2="44.5" y2="16.3797" gradientUnits="userSpaceOnUse">
<stop stop-color="#9D51D3"/>
<stop offset="1" stop-color="#8B4EB7"/>
</linearGradient>
<linearGradient id="paint5_linear_135_1379" x1="44.5" y1="0" x2="44.5" y2="16.3797" gradientUnits="userSpaceOnUse">
<stop stop-color="#9D51D3"/>
<stop offset="1" stop-color="#8B4EB7"/>
</linearGradient>
</defs>
</svg>
