<svg width="20" height="21" viewBox="0 0 20 21" fill="none" xmlns="http://www.w3.org/2000/svg">
<path opacity="0.7" fill-rule="evenodd" clip-rule="evenodd" d="M13.5452 4.28922C15.9226 7.24456 15.4541 11.5676 12.4987 13.945C9.54327 16.3225 5.2202 15.854 2.84282 12.8986C0.465445 9.94327 0.93399 5.62021 3.88939 3.24278C6.84478 0.865359 11.1678 1.33388 13.5452 4.28922ZM13.2282 14.8197C13.223 14.8239 13.2177 14.8282 13.2125 14.8324C9.76703 17.604 4.72709 17.0579 1.95547 13.6124C-0.816148 10.167 -0.269892 5.12708 3.17557 2.35543C6.62103 -0.416219 11.661 0.12998 14.4326 3.5754C16.958 6.71475 16.7288 11.1779 14.0618 14.0427L19.2578 20.0184L18.3984 20.7656L13.2282 14.8197Z" fill="url(#paint0_linear_135_2253)"/>
<defs>
<linearGradient id="paint0_linear_135_2253" x1="3.17557" y1="2.35543" x2="18.1476" y2="20.9673" gradientUnits="userSpaceOnUse">
<stop stop-color="#DCAAFF"/>
<stop offset="1" stop-color="#BF69FE"/>
</linearGradient>
</defs>
</svg>
