<svg width="20" height="20" viewBox="0 0 20 20" fill="none" xmlns="http://www.w3.org/2000/svg">
<g opacity="0.5">
<mask id="path-1-inside-1_135_1389" fill="white">
<path fill-rule="evenodd" clip-rule="evenodd" d="M0 0.433701H5.4929L10.8809 7.55047L16.8115 0.433701H17.8744L11.3868 8.21873L20 19.5955H14.6623L8.55615 11.6156L1.93207 19.5645H0.869249L8.0474 10.9507L0 0.433701Z"/>
</mask>
<path fill-rule="evenodd" clip-rule="evenodd" d="M0 0.433701H5.4929L10.8809 7.55047L16.8115 0.433701H17.8744L11.3868 8.21873L20 19.5955H14.6623L8.55615 11.6156L1.93207 19.5645H0.869249L8.0474 10.9507L0 0.433701Z" fill="#1D0C2B"/>
<path d="M5.4929 0.433701L6.29018 -0.169908L5.99008 -0.566299H5.4929V0.433701ZM0 0.433701V-0.566299H-2.02435L-0.794175 1.04139L0 0.433701ZM10.8809 7.55047L10.0836 8.15408L10.8434 9.15758L11.6491 8.19065L10.8809 7.55047ZM16.8115 0.433701V-0.566299H16.3432L16.0433 -0.206484L16.8115 0.433701ZM17.8744 0.433701L18.6426 1.07388L20.0094 -0.566299H17.8744V0.433701ZM11.3868 8.21873L10.6186 7.57855L10.11 8.1889L10.5896 8.82234L11.3868 8.21873ZM20 19.5955V20.5955H22.0113L20.7973 18.9919L20 19.5955ZM14.6623 19.5955L13.8681 20.2032L14.1683 20.5955H14.6623V19.5955ZM8.55615 11.6156L9.35033 11.0079L8.58947 10.0135L7.78793 10.9754L8.55615 11.6156ZM1.93207 19.5645V20.5645H2.40044L2.70029 20.2046L1.93207 19.5645ZM0.869249 19.5645L0.101028 18.9243L-1.26579 20.5645H0.869249V19.5645ZM8.0474 10.9507L8.81562 11.5909L9.32693 10.9773L8.84157 10.343L8.0474 10.9507ZM5.4929 -0.566299H0V1.4337H5.4929V-0.566299ZM11.6782 6.94686L6.29018 -0.169908L4.69562 1.03731L10.0836 8.15408L11.6782 6.94686ZM11.6491 8.19065L17.5798 1.07388L16.0433 -0.206484L10.1127 6.91029L11.6491 8.19065ZM16.8115 1.4337H17.8744V-0.566299H16.8115V1.4337ZM17.1061 -0.206484L10.6186 7.57855L12.1551 8.85892L18.6426 1.07388L17.1061 -0.206484ZM20.7973 18.9919L12.1841 7.61512L10.5896 8.82234L19.2027 20.1991L20.7973 18.9919ZM14.6623 20.5955H20V18.5955H14.6623V20.5955ZM7.76198 12.2232L13.8681 20.2032L15.4564 18.9878L9.35033 11.0079L7.76198 12.2232ZM7.78793 10.9754L1.16385 18.9243L2.70029 20.2046L9.32437 12.2557L7.78793 10.9754ZM1.93207 18.5645H0.869249V20.5645H1.93207V18.5645ZM1.63747 20.2046L8.81562 11.5909L7.27918 10.3105L0.101028 18.9243L1.63747 20.2046ZM-0.794175 1.04139L7.25322 11.5584L8.84157 10.343L0.794175 -0.173988L-0.794175 1.04139Z" fill="url(#paint0_linear_135_1389)" mask="url(#path-1-inside-1_135_1389)"/>
</g>
<defs>
<linearGradient id="paint0_linear_135_1389" x1="6.63574" y1="0.433701" x2="6.63574" y2="31.4818" gradientUnits="userSpaceOnUse">
<stop stop-color="#DCAAFF"/>
<stop offset="1" stop-color="#BF69FE"/>
</linearGradient>
</defs>
</svg>
